<svg id="svg" version="1.1" xmlns="http://www.w3.org/2000/svg" xmlns:xlink="http://www.w3.org/1999/xlink" width="400" height="400" viewBox="0, 0, 400,400"><g id="svgg"><path id="path0" d="M145.336 22.223 C 145.204 22.566,144.895 22.769,144.648 22.674 C 144.320 22.548,144.202 28.426,144.209 44.551 L 144.217 66.600 144.003 44.800 L 143.790 23.000 143.695 44.620 C 143.623 61.009,143.716 66.356,144.080 66.720 C 144.453 67.093,140.945 67.200,128.294 67.200 C 112.786 67.200,112.009 67.235,111.626 67.952 C 111.389 68.394,111.208 72.922,111.187 78.952 L 111.150 89.200 101.008 89.200 C 95.429 89.200,90.581 89.309,90.233 89.443 C 89.678 89.656,89.600 90.985,89.600 100.243 C 89.600 107.014,89.457 110.800,89.200 110.800 C 88.980 110.800,88.800 111.058,88.800 111.374 C 88.800 112.126,69.059 112.313,68.163 111.570 C 67.701 111.185,67.615 117.055,67.611 149.458 L 67.606 187.800 66.751 188.507 C 65.956 189.163,64.372 189.212,44.334 189.193 L 22.774 189.173 22.687 199.987 L 22.600 210.800 44.074 210.800 C 57.002 210.800,65.955 210.955,66.570 211.189 L 67.592 211.577 67.696 249.993 C 67.777 280.058,67.694 288.368,67.313 288.222 C 67.045 288.119,66.719 288.207,66.589 288.417 C 66.358 288.791,66.896 288.960,67.900 288.830 C 68.175 288.794,68.400 288.953,68.400 289.182 C 68.400 289.722,109.872 289.770,110.067 289.230 C 111.084 286.408,111.211 289.427,111.198 316.100 L 111.184 343.600 138.797 343.600 L 166.411 343.600 166.402 316.300 L 166.394 289.000 167.297 289.200 C 167.794 289.310,182.690 289.400,200.400 289.400 C 218.110 289.400,232.825 289.310,233.101 289.200 C 233.499 289.041,233.600 294.594,233.595 316.300 L 233.589 343.600 260.933 343.600 C 286.813 343.600,288.311 343.639,288.931 344.324 C 289.521 344.976,289.589 347.225,289.607 366.766 C 289.624 384.791,289.722 388.579,290.185 389.042 C 290.888 389.745,331.525 389.882,332.826 389.186 C 333.859 388.633,334.058 346.401,333.032 345.375 C 332.558 344.901,328.911 344.790,311.026 344.703 L 289.589 344.600 289.494 317.000 L 289.400 289.400 310.703 289.513 C 325.232 289.589,332.259 289.489,332.803 289.198 C 333.591 288.777,333.600 288.315,333.600 249.786 L 333.600 210.800 355.594 210.800 L 377.587 210.800 377.694 199.900 C 377.786 190.420,377.878 189.026,378.400 189.200 C 378.730 189.310,383.725 189.451,389.500 189.513 L 400.000 189.626 400.000 128.413 L 400.000 67.200 389.233 67.200 C 380.994 67.200,378.419 67.083,378.265 66.700 C 378.154 66.425,378.049 66.616,378.032 67.124 C 378.014 67.632,377.865 67.964,377.700 67.862 C 377.535 67.760,377.446 94.849,377.503 128.060 C 377.584 176.042,377.707 188.392,378.103 188.192 C 378.376 188.054,378.249 188.226,377.819 188.574 C 377.124 189.137,374.632 189.195,355.307 189.103 L 333.576 189.000 333.594 150.500 L 333.612 112.000 322.470 112.000 L 311.328 112.000 310.864 110.981 C 310.550 110.291,310.400 106.584,310.400 99.481 L 310.401 89.000 299.900 89.113 L 289.400 89.225 289.400 78.513 C 289.400 70.619,289.277 67.801,288.933 67.801 C 288.677 67.800,288.332 67.665,288.167 67.500 C 288.002 67.335,280.689 67.200,271.916 67.200 C 259.387 67.200,255.979 67.093,256.030 66.700 C 256.467 63.333,255.911 23.200,255.427 23.200 C 255.112 23.200,254.740 22.840,254.600 22.400 C 254.355 21.629,253.995 21.600,244.600 21.600 C 235.205 21.600,234.845 21.629,234.600 22.400 C 234.460 22.840,234.175 23.200,233.966 23.200 C 233.730 23.200,233.627 31.356,233.693 44.800 C 233.778 61.870,233.695 66.400,233.300 66.400 C 233.025 66.400,232.800 66.582,232.800 66.804 C 232.800 67.074,221.708 67.204,199.594 67.195 L 166.387 67.182 166.407 44.966 L 166.426 22.749 156.113 22.687 L 145.800 22.625 155.900 22.506 C 162.170 22.432,166.000 22.237,166.000 21.993 C 166.000 21.256,145.620 21.482,145.336 22.223 M249.723 22.699 C 247.041 22.768,242.541 22.768,239.723 22.699 C 236.905 22.630,239.100 22.574,244.600 22.573 C 250.100 22.573,252.405 22.630,249.723 22.699 M232.986 44.600 C 232.987 56.480,233.038 61.282,233.100 55.272 C 233.162 49.261,233.162 39.541,233.100 33.672 C 233.037 27.802,232.986 32.720,232.986 44.600 M10.700 67.100 L 0.000 67.213 0.000 128.407 L 0.000 189.600 10.400 189.600 C 19.553 189.600,20.800 189.525,20.800 188.976 C 20.800 188.633,20.980 188.464,21.200 188.600 C 21.466 188.764,21.610 168.630,21.631 128.524 C 21.647 95.346,21.722 67.885,21.795 67.500 C 21.869 67.115,21.810 66.842,21.665 66.893 C 21.519 66.944,16.585 67.037,10.700 67.100 M89.200 89.000 C 89.200 89.330,89.020 89.600,88.800 89.600 C 88.544 89.600,88.400 93.333,88.400 100.000 C 88.400 106.667,88.544 110.400,88.800 110.400 C 89.056 110.400,89.200 106.662,89.200 99.987 C 89.200 91.101,89.288 89.541,89.800 89.345 C 90.130 89.218,90.400 88.954,90.400 88.757 C 90.400 88.561,90.130 88.400,89.800 88.400 C 89.470 88.400,89.200 88.670,89.200 89.000 M178.157 144.233 C 178.519 145.176,178.451 145.679,178.000 145.400 C 177.734 145.236,177.598 160.031,177.594 189.476 C 177.591 213.854,177.443 233.572,177.266 233.293 C 176.891 232.702,135.285 232.762,133.700 233.356 C 133.103 233.580,132.800 233.543,132.800 233.247 C 132.800 233.001,133.025 232.800,133.300 232.800 C 133.697 232.800,133.800 223.773,133.800 189.000 C 133.800 150.337,133.730 145.199,133.200 145.191 C 132.799 145.185,132.931 144.923,133.600 144.400 C 135.002 143.303,177.739 143.143,178.157 144.233 M266.447 144.100 C 266.473 144.375,266.466 144.825,266.430 145.100 C 266.394 145.375,266.643 145.600,266.982 145.600 C 267.535 145.600,267.600 150.159,267.600 189.181 L 267.600 232.761 245.608 232.790 C 233.513 232.806,223.343 232.924,223.008 233.052 C 222.656 233.187,222.380 233.057,222.353 232.743 C 222.327 232.444,222.167 232.740,221.998 233.400 C 221.830 234.060,221.674 214.222,221.652 189.315 C 221.616 147.414,221.662 144.049,222.272 144.283 C 222.714 144.453,222.836 144.382,222.642 144.068 C 222.423 143.713,227.663 143.600,244.376 143.600 C 261.703 143.600,266.410 143.707,266.447 144.100 M232.984 289.700 C 232.879 289.975,232.839 302.260,232.897 317.000 L 233.000 343.800 233.200 316.500 C 233.310 301.485,233.349 289.200,233.287 289.200 C 233.226 289.200,233.089 289.425,232.984 289.700 M67.057 344.300 C 67.641 345.492,67.891 388.444,67.313 388.222 C 67.045 388.119,66.719 388.207,66.589 388.417 C 66.358 388.791,66.896 388.960,67.900 388.830 C 68.175 388.794,68.400 388.953,68.400 389.182 C 68.400 389.467,75.015 389.600,89.192 389.600 L 109.985 389.600 110.205 388.700 C 110.326 388.205,110.374 378.232,110.312 366.538 C 110.251 354.844,110.315 345.347,110.455 345.434 C 110.595 345.520,110.895 345.368,111.121 345.096 C 111.534 344.599,106.298 344.570,76.500 344.901 C 68.033 344.995,67.391 344.923,67.553 343.900 C 67.579 343.735,67.401 343.600,67.157 343.600 C 66.872 343.600,66.836 343.848,67.057 344.300 M288.667 345.467 C 288.217 345.916,288.349 388.000,288.800 388.000 C 289.062 388.000,289.200 380.600,289.200 366.600 C 289.200 354.830,289.140 345.200,289.067 345.200 C 288.993 345.200,288.813 345.320,288.667 345.467 " stroke="none" fill="#543c84" fill-rule="evenodd"></path><path id="path1" d="M143.600 21.557 C 143.600 22.548,144.839 23.030,145.295 22.216 C 145.706 21.482,166.000 21.264,166.000 21.993 C 166.000 22.237,162.170 22.432,155.900 22.506 L 145.800 22.625 156.113 22.687 L 166.426 22.749 166.407 44.966 L 166.387 67.182 199.594 67.195 C 221.708 67.204,232.800 67.074,232.800 66.804 C 232.800 66.582,233.025 66.400,233.300 66.400 C 233.695 66.400,233.778 61.870,233.693 44.800 C 233.627 31.356,233.730 23.200,233.966 23.200 C 234.175 23.200,234.460 22.840,234.600 22.400 C 234.845 21.629,235.205 21.600,244.600 21.600 C 253.995 21.600,254.355 21.629,254.600 22.400 C 254.740 22.840,255.112 23.200,255.427 23.200 C 255.911 23.200,256.467 63.333,256.030 66.700 C 255.979 67.093,259.396 67.200,271.959 67.200 C 281.703 67.200,288.045 67.349,288.189 67.583 C 288.319 67.793,288.701 67.859,289.037 67.730 C 289.578 67.523,289.634 68.744,289.524 78.361 L 289.400 89.225 299.900 89.113 L 310.401 89.000 310.400 99.481 C 310.400 106.584,310.550 110.291,310.864 110.981 L 311.328 112.000 322.470 112.000 L 333.612 112.000 333.594 150.500 L 333.577 189.000 355.688 189.000 L 377.800 189.000 377.688 199.900 L 377.575 210.800 355.588 210.800 L 333.600 210.800 333.600 249.780 C 333.600 286.482,333.559 288.784,332.900 289.168 C 332.268 289.536,332.265 289.577,332.867 289.588 C 334.928 289.625,334.800 292.204,334.800 250.557 L 334.800 212.000 357.000 212.000 L 379.200 212.000 379.200 200.643 C 379.200 190.712,379.121 189.255,378.575 189.046 C 378.225 188.911,378.076 188.601,378.236 188.341 C 378.415 188.052,378.349 187.984,378.062 188.162 C 377.519 188.498,377.457 68.894,378.000 67.200 C 378.176 66.650,378.338 66.425,378.360 66.700 C 378.425 67.517,400.000 67.418,400.000 66.600 C 400.000 66.081,398.463 66.000,388.571 66.000 L 377.143 66.000 377.216 66.900 C 377.256 67.395,377.269 94.845,377.244 127.900 L 377.200 188.000 356.000 188.000 C 342.133 188.000,334.800 188.138,334.800 188.400 C 334.800 188.620,334.485 188.795,334.100 188.788 C 333.433 188.776,333.433 188.756,334.100 188.368 C 334.993 187.848,335.209 111.769,334.320 110.880 C 333.970 110.530,330.880 110.400,322.920 110.400 L 312.000 110.400 312.000 99.200 L 312.000 88.000 301.200 88.000 L 290.400 88.000 290.395 77.900 C 290.392 72.345,290.281 67.395,290.148 66.900 L 289.907 66.000 273.353 66.000 L 256.800 66.000 256.800 44.033 C 256.800 31.951,256.691 21.781,256.557 21.433 C 256.189 20.472,233.011 20.472,232.643 21.433 C 232.509 21.781,232.400 31.951,232.400 44.033 L 232.400 66.000 200.400 66.000 L 168.400 66.000 168.400 44.580 C 168.400 26.162,168.314 22.995,167.790 21.980 L 167.179 20.800 155.390 20.800 C 144.089 20.800,143.600 20.831,143.600 21.557 M239.723 22.699 C 242.541 22.768,247.041 22.768,249.723 22.699 C 252.405 22.630,250.100 22.573,244.600 22.573 C 239.100 22.574,236.905 22.630,239.723 22.699 M143.907 44.500 L 144.014 66.200 127.007 66.092 L 110.000 65.983 110.000 76.992 L 110.000 88.000 99.000 88.000 C 88.267 88.000,88.000 88.019,88.000 88.800 C 88.000 89.244,88.267 89.600,88.600 89.600 C 89.118 89.600,89.200 91.022,89.200 100.000 L 89.200 110.400 77.600 110.400 L 66.000 110.400 66.000 149.200 L 66.000 188.000 44.600 188.000 L 23.200 188.000 23.200 127.000 L 23.200 66.000 11.600 66.000 C 1.405 66.000,0.000 66.075,0.000 66.618 C 0.000 67.163,1.290 67.222,10.950 67.118 C 20.512 67.015,21.885 67.076,21.781 67.600 C 21.715 67.930,21.647 95.346,21.631 128.524 C 21.610 169.232,21.468 188.766,21.194 188.596 C 20.922 188.428,20.823 192.213,20.894 200.073 L 21.000 211.800 43.500 211.903 L 66.000 212.007 66.000 250.803 L 66.000 289.600 67.200 289.600 C 67.860 289.600,68.400 289.412,68.400 289.182 C 68.400 288.953,68.175 288.794,67.900 288.830 C 66.896 288.960,66.358 288.791,66.589 288.417 C 66.719 288.207,67.045 288.119,67.313 288.222 C 67.694 288.368,67.777 280.058,67.696 249.993 L 67.592 211.577 66.570 211.189 C 65.955 210.955,57.002 210.800,44.074 210.800 L 22.600 210.800 22.687 199.987 L 22.774 189.173 44.334 189.193 C 64.372 189.212,65.956 189.163,66.751 188.507 L 67.606 187.800 67.611 149.458 C 67.615 117.055,67.701 111.185,68.163 111.570 C 69.059 112.313,88.800 112.126,88.800 111.374 C 88.800 111.058,88.980 110.800,89.200 110.800 C 89.457 110.800,89.600 107.014,89.600 100.243 C 89.600 90.985,89.678 89.656,90.233 89.443 C 90.581 89.309,95.429 89.200,101.008 89.200 L 111.150 89.200 111.187 78.952 C 111.208 72.922,111.389 68.394,111.626 67.952 C 112.009 67.235,112.784 67.200,128.201 67.200 L 144.374 67.200 144.393 45.000 C 144.404 32.790,144.275 22.800,144.106 22.800 C 143.938 22.800,143.848 32.565,143.907 44.500 M233.100 55.272 C 233.038 61.282,232.987 56.480,232.986 44.600 C 232.986 32.720,233.037 27.802,233.100 33.672 C 233.162 39.541,233.162 49.261,233.100 55.272 M90.400 88.757 C 90.400 88.954,90.130 89.218,89.800 89.345 C 89.435 89.485,89.200 89.345,89.200 88.987 C 89.200 88.664,89.470 88.400,89.800 88.400 C 90.130 88.400,90.400 88.561,90.400 88.757 M133.600 144.400 C 132.931 144.923,132.799 145.185,133.200 145.191 C 133.730 145.199,133.800 150.337,133.800 189.000 C 133.800 223.773,133.697 232.800,133.300 232.800 C 133.025 232.800,132.800 233.001,132.800 233.247 C 132.800 233.543,133.103 233.580,133.700 233.356 C 135.285 232.762,176.891 232.702,177.266 233.293 C 177.443 233.572,177.591 213.854,177.594 189.476 C 177.598 160.031,177.734 145.236,178.000 145.400 C 178.451 145.679,178.519 145.176,178.157 144.233 C 177.739 143.143,135.002 143.303,133.600 144.400 M222.642 144.068 C 222.836 144.382,222.714 144.453,222.272 144.283 C 221.662 144.049,221.616 147.414,221.652 189.315 C 221.674 214.222,221.830 234.060,221.998 233.400 C 222.167 232.740,222.327 232.444,222.353 232.743 C 222.380 233.057,222.656 233.187,223.008 233.052 C 223.343 232.924,233.513 232.806,245.608 232.790 L 267.600 232.761 267.600 189.181 C 267.600 150.159,267.535 145.600,266.982 145.600 C 266.643 145.600,266.394 145.375,266.430 145.100 C 266.629 143.568,267.105 143.600,244.376 143.600 C 227.663 143.600,222.423 143.713,222.642 144.068 M177.200 189.000 L 177.200 232.400 156.000 232.400 L 134.800 232.400 134.800 189.000 L 134.800 145.600 156.000 145.600 L 177.200 145.600 177.200 189.000 M266.000 189.000 L 266.000 232.400 244.600 232.400 L 223.200 232.400 223.200 189.000 L 223.200 145.600 244.600 145.600 L 266.000 145.600 266.000 189.000 M110.500 288.688 C 110.107 288.829,110.000 294.702,110.000 316.233 L 110.000 343.600 88.867 343.600 C 77.243 343.600,67.626 343.708,67.494 343.839 C 66.513 344.820,67.999 344.996,76.504 344.901 C 106.290 344.570,111.534 344.599,111.121 345.096 C 110.895 345.368,110.595 345.520,110.455 345.434 C 110.315 345.347,110.200 355.249,110.200 367.438 L 110.200 389.600 111.100 389.600 L 112.000 389.600 112.000 367.600 L 112.000 345.600 139.720 345.600 L 167.439 345.600 167.920 344.272 C 168.276 343.287,168.400 335.979,168.400 316.072 C 168.400 287.641,168.493 289.206,166.789 289.040 C 166.511 289.013,166.383 297.847,166.394 316.300 L 166.411 343.600 138.797 343.600 L 111.184 343.600 111.208 316.149 C 111.221 301.052,111.180 288.656,111.116 288.604 C 111.052 288.552,110.775 288.590,110.500 288.688 M232.900 289.088 C 232.506 289.229,232.400 295.263,232.400 317.439 L 232.400 345.611 260.800 345.505 L 289.200 345.400 289.200 366.700 C 289.200 385.367,289.126 388.000,288.600 388.000 C 288.267 388.000,288.000 388.356,288.000 388.800 C 288.000 389.422,288.267 389.600,289.200 389.600 C 289.860 389.600,290.400 389.420,290.400 389.200 C 290.400 388.980,290.226 388.800,290.013 388.800 C 289.769 388.800,289.619 380.732,289.607 366.924 C 289.589 347.234,289.522 344.976,288.932 344.324 C 288.311 343.639,286.817 343.600,260.933 343.600 L 233.589 343.600 233.606 316.344 C 233.614 301.354,233.572 289.048,233.511 288.999 C 233.450 288.950,233.175 288.990,232.900 289.088 M233.200 316.500 L 233.000 343.800 232.897 317.000 C 232.804 293.111,232.859 289.200,233.287 289.200 C 233.349 289.200,233.310 301.485,233.200 316.500 M289.905 289.453 C 289.743 289.702,289.603 302.212,289.594 317.253 L 289.578 344.600 311.021 344.703 C 328.910 344.790,332.558 344.901,333.032 345.375 C 333.995 346.338,333.867 388.604,332.900 389.168 C 332.067 389.653,333.024 389.796,334.167 389.357 C 334.814 389.109,335.188 345.877,334.557 344.233 C 334.340 343.666,332.011 343.600,312.360 343.600 L 290.406 343.600 290.303 316.300 C 290.246 301.285,290.067 289.204,289.905 289.453 M66.000 366.600 L 66.000 389.600 67.200 389.600 C 67.860 389.600,68.400 389.412,68.400 389.182 C 68.400 388.953,68.175 388.794,67.900 388.830 C 66.896 388.960,66.358 388.791,66.589 388.417 C 66.719 388.207,67.045 388.119,67.313 388.222 C 67.891 388.444,67.641 345.492,67.057 344.300 C 66.124 342.394,66.000 345.007,66.000 366.600 " stroke="none" fill="#543484" fill-rule="evenodd"></path><path id="path2" d="M88.175 100.000 C 88.175 105.830,88.231 108.215,88.299 105.300 C 88.367 102.385,88.367 97.615,88.299 94.700 C 88.231 91.785,88.175 94.170,88.175 100.000 M288.186 366.800 C 288.186 378.570,288.237 383.385,288.300 377.500 C 288.362 371.615,288.362 361.985,288.300 356.100 C 288.237 350.215,288.186 355.030,288.186 366.800 " stroke="none" fill="#583c84" fill-rule="evenodd"></path><path id="path3" d="M88.175 100.000 C 88.175 105.830,88.231 108.215,88.299 105.300 C 88.367 102.385,88.367 97.615,88.299 94.700 C 88.231 91.785,88.175 94.170,88.175 100.000 M288.186 366.800 C 288.186 378.570,288.237 383.385,288.300 377.500 C 288.362 371.615,288.362 361.985,288.300 356.100 C 288.237 350.215,288.186 355.030,288.186 366.800 " stroke="none" fill="#583c84" fill-rule="evenodd"></path><path id="path4" d="M88.175 100.000 C 88.175 105.830,88.231 108.215,88.299 105.300 C 88.367 102.385,88.367 97.615,88.299 94.700 C 88.231 91.785,88.175 94.170,88.175 100.000 M288.186 366.800 C 288.186 378.570,288.237 383.385,288.300 377.500 C 288.362 371.615,288.362 361.985,288.300 356.100 C 288.237 350.215,288.186 355.030,288.186 366.800 " stroke="none" fill="#583c84" fill-rule="evenodd"></path></g></svg>